<mxfile host="app.diagrams.net" modified="2023-04-25T16:41:17.773Z" agent="Mozilla/5.0 (Windows NT 10.0; Win64; x64) AppleWebKit/537.36 (KHTML, like Gecko) Chrome/112.0.0.0 Safari/537.36" etag="L5rXlgyKOLuIV5xs7K39" version="21.2.1" type="device">
  <diagram name="Trang-1" id="C9aAwTMG9WCna9EmUMCr">
    <mxGraphModel dx="2330" dy="353" grid="1" gridSize="10" guides="1" tooltips="1" connect="1" arrows="1" fold="1" page="1" pageScale="1" pageWidth="1654" pageHeight="1169" math="0" shadow="0">
      <root>
        <mxCell id="0" />
        <mxCell id="1" parent="0" />
        <mxCell id="0Egxr5-B9sbUrUBCtfe9-1" value="" style="rounded=0;whiteSpace=wrap;html=1;dashed=1;fillColor=none;" parent="1" vertex="1">
          <mxGeometry x="240" y="20" width="1190" height="460" as="geometry" />
        </mxCell>
        <mxCell id="0Egxr5-B9sbUrUBCtfe9-3" value="" style="rounded=0;whiteSpace=wrap;html=1;dashed=1;fillColor=none;" parent="1" vertex="1">
          <mxGeometry x="82" y="560" width="1490" height="460" as="geometry" />
        </mxCell>
        <mxCell id="72HqIzuM232NBAquBINw-82" style="edgeStyle=orthogonalEdgeStyle;rounded=0;orthogonalLoop=1;jettySize=auto;html=1;entryX=0;entryY=0.5;entryDx=0;entryDy=0;fontSize=8;" parent="1" source="72HqIzuM232NBAquBINw-1" target="72HqIzuM232NBAquBINw-8" edge="1">
          <mxGeometry relative="1" as="geometry" />
        </mxCell>
        <mxCell id="72HqIzuM232NBAquBINw-1" value="" style="rounded=0;whiteSpace=wrap;html=1;" parent="1" vertex="1">
          <mxGeometry x="319.5" y="100" width="120" height="80" as="geometry" />
        </mxCell>
        <mxCell id="72HqIzuM232NBAquBINw-4" value="HomeScreen" style="text;html=1;strokeColor=none;fillColor=none;align=center;verticalAlign=middle;whiteSpace=wrap;rounded=0;" parent="1" vertex="1">
          <mxGeometry x="349.5" y="70" width="60" height="30" as="geometry" />
        </mxCell>
        <mxCell id="72HqIzuM232NBAquBINw-5" value="&lt;font style=&quot;font-size: 14px;&quot;&gt;AUTO CUTTING&lt;/font&gt;" style="text;html=1;strokeColor=none;fillColor=none;align=center;verticalAlign=middle;whiteSpace=wrap;rounded=0;" parent="1" vertex="1">
          <mxGeometry x="324.5" y="109" width="110" height="46" as="geometry" />
        </mxCell>
        <mxCell id="72HqIzuM232NBAquBINw-7" value="NEXT &amp;gt;" style="text;html=1;strokeColor=none;fillColor=none;align=center;verticalAlign=middle;whiteSpace=wrap;rounded=0;" parent="1" vertex="1">
          <mxGeometry x="384.5" y="155" width="60" height="30" as="geometry" />
        </mxCell>
        <mxCell id="72HqIzuM232NBAquBINw-83" style="edgeStyle=orthogonalEdgeStyle;rounded=0;orthogonalLoop=1;jettySize=auto;html=1;entryX=0;entryY=0.5;entryDx=0;entryDy=0;fontSize=8;" parent="1" source="72HqIzuM232NBAquBINw-8" target="72HqIzuM232NBAquBINw-15" edge="1">
          <mxGeometry relative="1" as="geometry" />
        </mxCell>
        <mxCell id="72HqIzuM232NBAquBINw-8" value="" style="rounded=0;whiteSpace=wrap;html=1;" parent="1" vertex="1">
          <mxGeometry x="479.5" y="100" width="120" height="80" as="geometry" />
        </mxCell>
        <mxCell id="72HqIzuM232NBAquBINw-9" value="ChooseLength" style="text;html=1;strokeColor=none;fillColor=none;align=center;verticalAlign=middle;whiteSpace=wrap;rounded=0;" parent="1" vertex="1">
          <mxGeometry x="509.5" y="70" width="60" height="30" as="geometry" />
        </mxCell>
        <mxCell id="72HqIzuM232NBAquBINw-10" value="LENGTH" style="text;html=1;strokeColor=none;fillColor=none;align=center;verticalAlign=middle;whiteSpace=wrap;rounded=0;" parent="1" vertex="1">
          <mxGeometry x="489.5" y="96" width="100" height="30" as="geometry" />
        </mxCell>
        <mxCell id="72HqIzuM232NBAquBINw-11" value="" style="endArrow=none;html=1;rounded=0;exitX=0;exitY=0.25;exitDx=0;exitDy=0;entryX=1;entryY=0.25;entryDx=0;entryDy=0;" parent="1" source="72HqIzuM232NBAquBINw-8" target="72HqIzuM232NBAquBINw-8" edge="1">
          <mxGeometry width="50" height="50" relative="1" as="geometry">
            <mxPoint x="539.5" y="170" as="sourcePoint" />
            <mxPoint x="589.5" y="120" as="targetPoint" />
          </mxGeometry>
        </mxCell>
        <mxCell id="72HqIzuM232NBAquBINw-12" value="NEXT &amp;gt;" style="text;html=1;strokeColor=none;fillColor=none;align=center;verticalAlign=middle;whiteSpace=wrap;rounded=0;" parent="1" vertex="1">
          <mxGeometry x="544.5" y="155" width="60" height="30" as="geometry" />
        </mxCell>
        <mxCell id="72HqIzuM232NBAquBINw-13" value=".. mm" style="text;html=1;strokeColor=none;fillColor=none;align=center;verticalAlign=middle;whiteSpace=wrap;rounded=0;" parent="1" vertex="1">
          <mxGeometry x="529.5" y="126" width="60" height="30" as="geometry" />
        </mxCell>
        <mxCell id="72HqIzuM232NBAquBINw-14" value="&amp;lt; BACK" style="text;html=1;strokeColor=none;fillColor=none;align=center;verticalAlign=middle;whiteSpace=wrap;rounded=0;" parent="1" vertex="1">
          <mxGeometry x="475.5" y="155" width="60" height="30" as="geometry" />
        </mxCell>
        <mxCell id="72HqIzuM232NBAquBINw-84" style="edgeStyle=orthogonalEdgeStyle;rounded=0;orthogonalLoop=1;jettySize=auto;html=1;entryX=0;entryY=0.5;entryDx=0;entryDy=0;fontSize=8;" parent="1" source="72HqIzuM232NBAquBINw-15" target="72HqIzuM232NBAquBINw-22" edge="1">
          <mxGeometry relative="1" as="geometry" />
        </mxCell>
        <mxCell id="72HqIzuM232NBAquBINw-15" value="" style="rounded=0;whiteSpace=wrap;html=1;" parent="1" vertex="1">
          <mxGeometry x="633.5" y="100" width="120" height="80" as="geometry" />
        </mxCell>
        <mxCell id="72HqIzuM232NBAquBINw-16" value="ChooseQuantity" style="text;html=1;strokeColor=none;fillColor=none;align=center;verticalAlign=middle;whiteSpace=wrap;rounded=0;" parent="1" vertex="1">
          <mxGeometry x="663.5" y="70" width="60" height="30" as="geometry" />
        </mxCell>
        <mxCell id="72HqIzuM232NBAquBINw-17" value="QUANTITY" style="text;html=1;strokeColor=none;fillColor=none;align=center;verticalAlign=middle;whiteSpace=wrap;rounded=0;" parent="1" vertex="1">
          <mxGeometry x="643.5" y="96" width="100" height="30" as="geometry" />
        </mxCell>
        <mxCell id="72HqIzuM232NBAquBINw-18" value="" style="endArrow=none;html=1;rounded=0;exitX=0;exitY=0.25;exitDx=0;exitDy=0;entryX=1;entryY=0.25;entryDx=0;entryDy=0;" parent="1" source="72HqIzuM232NBAquBINw-15" target="72HqIzuM232NBAquBINw-15" edge="1">
          <mxGeometry width="50" height="50" relative="1" as="geometry">
            <mxPoint x="693.5" y="170" as="sourcePoint" />
            <mxPoint x="743.5" y="120" as="targetPoint" />
          </mxGeometry>
        </mxCell>
        <mxCell id="72HqIzuM232NBAquBINw-19" value="NEXT &amp;gt;" style="text;html=1;strokeColor=none;fillColor=none;align=center;verticalAlign=middle;whiteSpace=wrap;rounded=0;" parent="1" vertex="1">
          <mxGeometry x="698.5" y="155" width="60" height="30" as="geometry" />
        </mxCell>
        <mxCell id="72HqIzuM232NBAquBINw-20" value=".. PCS" style="text;html=1;strokeColor=none;fillColor=none;align=center;verticalAlign=middle;whiteSpace=wrap;rounded=0;" parent="1" vertex="1">
          <mxGeometry x="683.5" y="126" width="60" height="30" as="geometry" />
        </mxCell>
        <mxCell id="72HqIzuM232NBAquBINw-21" value="&amp;lt; BACK" style="text;html=1;strokeColor=none;fillColor=none;align=center;verticalAlign=middle;whiteSpace=wrap;rounded=0;" parent="1" vertex="1">
          <mxGeometry x="629.5" y="155" width="60" height="30" as="geometry" />
        </mxCell>
        <mxCell id="72HqIzuM232NBAquBINw-22" value="" style="rounded=0;whiteSpace=wrap;html=1;" parent="1" vertex="1">
          <mxGeometry x="783.5" y="100" width="120" height="80" as="geometry" />
        </mxCell>
        <mxCell id="72HqIzuM232NBAquBINw-23" value="DiameterSetting" style="text;html=1;strokeColor=none;fillColor=none;align=center;verticalAlign=middle;whiteSpace=wrap;rounded=0;" parent="1" vertex="1">
          <mxGeometry x="813.5" y="70" width="60" height="30" as="geometry" />
        </mxCell>
        <mxCell id="72HqIzuM232NBAquBINw-24" value="SETTING" style="text;html=1;strokeColor=none;fillColor=none;align=center;verticalAlign=middle;whiteSpace=wrap;rounded=0;" parent="1" vertex="1">
          <mxGeometry x="793.5" y="96" width="100" height="30" as="geometry" />
        </mxCell>
        <mxCell id="72HqIzuM232NBAquBINw-25" value="" style="endArrow=none;html=1;rounded=0;exitX=0;exitY=0.25;exitDx=0;exitDy=0;entryX=1;entryY=0.25;entryDx=0;entryDy=0;" parent="1" source="72HqIzuM232NBAquBINw-22" target="72HqIzuM232NBAquBINw-22" edge="1">
          <mxGeometry width="50" height="50" relative="1" as="geometry">
            <mxPoint x="843.5" y="170" as="sourcePoint" />
            <mxPoint x="893.5" y="120" as="targetPoint" />
          </mxGeometry>
        </mxCell>
        <mxCell id="72HqIzuM232NBAquBINw-85" style="edgeStyle=orthogonalEdgeStyle;rounded=0;orthogonalLoop=1;jettySize=auto;html=1;entryX=0.85;entryY=0.133;entryDx=0;entryDy=0;entryPerimeter=0;fontSize=8;" parent="1" target="72HqIzuM232NBAquBINw-31" edge="1">
          <mxGeometry relative="1" as="geometry">
            <mxPoint x="878.5" y="180" as="sourcePoint" />
          </mxGeometry>
        </mxCell>
        <mxCell id="72HqIzuM232NBAquBINw-26" value="NEXT &amp;gt;" style="text;html=1;strokeColor=none;fillColor=none;align=center;verticalAlign=middle;whiteSpace=wrap;rounded=0;" parent="1" vertex="1">
          <mxGeometry x="848.5" y="155" width="60" height="30" as="geometry" />
        </mxCell>
        <mxCell id="72HqIzuM232NBAquBINw-27" value="&lt;font style=&quot;font-size: 8px;&quot;&gt;&lt;span style=&quot;background-color: rgb(255, 128, 0);&quot;&gt;D: .. mm&lt;br&gt;&lt;/span&gt;A: .. mm&lt;br&gt;&lt;/font&gt;" style="text;html=1;align=left;verticalAlign=middle;whiteSpace=wrap;rounded=0;" parent="1" vertex="1">
          <mxGeometry x="785.5" y="121.5" width="54" height="39" as="geometry" />
        </mxCell>
        <mxCell id="72HqIzuM232NBAquBINw-28" value="&amp;lt; BACK" style="text;html=1;strokeColor=none;fillColor=none;align=center;verticalAlign=middle;whiteSpace=wrap;rounded=0;" parent="1" vertex="1">
          <mxGeometry x="779.5" y="155" width="60" height="30" as="geometry" />
        </mxCell>
        <mxCell id="72HqIzuM232NBAquBINw-29" value="" style="rounded=0;whiteSpace=wrap;html=1;" parent="1" vertex="1">
          <mxGeometry x="783.5" y="210" width="120" height="80" as="geometry" />
        </mxCell>
        <mxCell id="72HqIzuM232NBAquBINw-30" value="CuttingAngleSetting" style="text;html=1;strokeColor=none;fillColor=none;align=center;verticalAlign=middle;whiteSpace=wrap;rounded=0;" parent="1" vertex="1">
          <mxGeometry x="787.5" y="180" width="116" height="30" as="geometry" />
        </mxCell>
        <mxCell id="72HqIzuM232NBAquBINw-31" value="SETTING" style="text;html=1;strokeColor=none;fillColor=none;align=center;verticalAlign=middle;whiteSpace=wrap;rounded=0;" parent="1" vertex="1">
          <mxGeometry x="793.5" y="206" width="100" height="30" as="geometry" />
        </mxCell>
        <mxCell id="72HqIzuM232NBAquBINw-32" value="" style="endArrow=none;html=1;rounded=0;exitX=0;exitY=0.25;exitDx=0;exitDy=0;entryX=1;entryY=0.25;entryDx=0;entryDy=0;" parent="1" source="72HqIzuM232NBAquBINw-29" target="72HqIzuM232NBAquBINw-29" edge="1">
          <mxGeometry width="50" height="50" relative="1" as="geometry">
            <mxPoint x="843.5" y="280" as="sourcePoint" />
            <mxPoint x="893.5" y="230" as="targetPoint" />
          </mxGeometry>
        </mxCell>
        <mxCell id="72HqIzuM232NBAquBINw-33" value="NEXT &amp;gt;" style="text;html=1;strokeColor=none;fillColor=none;align=center;verticalAlign=middle;whiteSpace=wrap;rounded=0;" parent="1" vertex="1">
          <mxGeometry x="848.5" y="265" width="60" height="25" as="geometry" />
        </mxCell>
        <mxCell id="72HqIzuM232NBAquBINw-34" value="&lt;font style=&quot;font-size: 8px;&quot;&gt;&lt;span style=&quot;background-color: rgb(255, 255, 255);&quot;&gt;D: .. mm&lt;/span&gt;&lt;br&gt;&lt;span style=&quot;background-color: rgb(255, 128, 0);&quot;&gt;A: .. mm&lt;/span&gt;&lt;br&gt;&lt;/font&gt;" style="text;html=1;align=left;verticalAlign=middle;whiteSpace=wrap;rounded=0;" parent="1" vertex="1">
          <mxGeometry x="785.5" y="231" width="60" height="39" as="geometry" />
        </mxCell>
        <mxCell id="72HqIzuM232NBAquBINw-35" value="&amp;lt; BACK" style="text;html=1;strokeColor=none;fillColor=none;align=center;verticalAlign=middle;whiteSpace=wrap;rounded=0;" parent="1" vertex="1">
          <mxGeometry x="779.5" y="265" width="60" height="30" as="geometry" />
        </mxCell>
        <mxCell id="72HqIzuM232NBAquBINw-91" style="edgeStyle=orthogonalEdgeStyle;rounded=0;orthogonalLoop=1;jettySize=auto;html=1;fontSize=8;entryX=0;entryY=1;entryDx=0;entryDy=0;" parent="1" source="72HqIzuM232NBAquBINw-36" target="72HqIzuM232NBAquBINw-58" edge="1">
          <mxGeometry relative="1" as="geometry">
            <mxPoint x="999.5" y="201.1627906976744" as="targetPoint" />
          </mxGeometry>
        </mxCell>
        <mxCell id="72HqIzuM232NBAquBINw-36" value="" style="rounded=0;whiteSpace=wrap;html=1;" parent="1" vertex="1">
          <mxGeometry x="783.5" y="320" width="120" height="80" as="geometry" />
        </mxCell>
        <mxCell id="72HqIzuM232NBAquBINw-37" value="SpeedSetting" style="text;html=1;strokeColor=none;fillColor=none;align=center;verticalAlign=middle;whiteSpace=wrap;rounded=0;" parent="1" vertex="1">
          <mxGeometry x="813.5" y="295" width="60" height="30" as="geometry" />
        </mxCell>
        <mxCell id="72HqIzuM232NBAquBINw-38" value="SETTING" style="text;html=1;strokeColor=none;fillColor=none;align=center;verticalAlign=middle;whiteSpace=wrap;rounded=0;" parent="1" vertex="1">
          <mxGeometry x="793.5" y="316" width="100" height="30" as="geometry" />
        </mxCell>
        <mxCell id="72HqIzuM232NBAquBINw-39" value="" style="endArrow=none;html=1;rounded=0;exitX=0;exitY=0.25;exitDx=0;exitDy=0;entryX=1;entryY=0.25;entryDx=0;entryDy=0;" parent="1" source="72HqIzuM232NBAquBINw-36" target="72HqIzuM232NBAquBINw-36" edge="1">
          <mxGeometry width="50" height="50" relative="1" as="geometry">
            <mxPoint x="843.5" y="390" as="sourcePoint" />
            <mxPoint x="893.5" y="340" as="targetPoint" />
          </mxGeometry>
        </mxCell>
        <mxCell id="72HqIzuM232NBAquBINw-40" value="NEXT &amp;gt;" style="text;html=1;strokeColor=none;fillColor=none;align=center;verticalAlign=middle;whiteSpace=wrap;rounded=0;" parent="1" vertex="1">
          <mxGeometry x="848.5" y="375" width="60" height="25" as="geometry" />
        </mxCell>
        <mxCell id="72HqIzuM232NBAquBINw-41" value="&lt;font style=&quot;font-size: 8px;&quot;&gt;&lt;span style=&quot;background-color: rgb(255, 255, 255);&quot;&gt;D: .. mm&lt;br&gt;A: .. mm&lt;/span&gt;&lt;br&gt;&lt;/font&gt;" style="text;html=1;align=left;verticalAlign=middle;whiteSpace=wrap;rounded=0;" parent="1" vertex="1">
          <mxGeometry x="785.5" y="341" width="60" height="39" as="geometry" />
        </mxCell>
        <mxCell id="72HqIzuM232NBAquBINw-42" value="&amp;lt; BACK" style="text;html=1;strokeColor=none;fillColor=none;align=center;verticalAlign=middle;whiteSpace=wrap;rounded=0;" parent="1" vertex="1">
          <mxGeometry x="779.5" y="375" width="60" height="30" as="geometry" />
        </mxCell>
        <mxCell id="72HqIzuM232NBAquBINw-43" value="&lt;font style=&quot;font-size: 8px;&quot;&gt;&lt;span style=&quot;background-color: rgb(255, 255, 255);&quot;&gt;S: ..&amp;nbsp;&lt;/span&gt;&lt;br&gt;&lt;br&gt;&lt;/font&gt;" style="text;html=1;align=left;verticalAlign=middle;whiteSpace=wrap;rounded=0;" parent="1" vertex="1">
          <mxGeometry x="848.5" y="121.5" width="54" height="39" as="geometry" />
        </mxCell>
        <mxCell id="72HqIzuM232NBAquBINw-44" value="&lt;font style=&quot;font-size: 8px;&quot;&gt;&lt;span style=&quot;background-color: rgb(255, 255, 255);&quot;&gt;S: ..&amp;nbsp;&lt;/span&gt;&lt;br&gt;&lt;br&gt;&lt;/font&gt;" style="text;html=1;align=left;verticalAlign=middle;whiteSpace=wrap;rounded=0;" parent="1" vertex="1">
          <mxGeometry x="849.5" y="231.5" width="54" height="39" as="geometry" />
        </mxCell>
        <mxCell id="72HqIzuM232NBAquBINw-45" value="&lt;font style=&quot;font-size: 8px;&quot;&gt;&lt;span style=&quot;background-color: rgb(255, 128, 0);&quot;&gt;S: ..&amp;nbsp;&lt;/span&gt;&lt;br&gt;&lt;br&gt;&lt;/font&gt;" style="text;html=1;align=left;verticalAlign=middle;whiteSpace=wrap;rounded=0;" parent="1" vertex="1">
          <mxGeometry x="849" y="341" width="54" height="39" as="geometry" />
        </mxCell>
        <mxCell id="72HqIzuM232NBAquBINw-92" style="edgeStyle=orthogonalEdgeStyle;rounded=0;orthogonalLoop=1;jettySize=auto;html=1;entryX=0;entryY=0.5;entryDx=0;entryDy=0;fontSize=8;" parent="1" source="72HqIzuM232NBAquBINw-54" target="72HqIzuM232NBAquBINw-74" edge="1">
          <mxGeometry relative="1" as="geometry" />
        </mxCell>
        <mxCell id="72HqIzuM232NBAquBINw-54" value="" style="rounded=0;whiteSpace=wrap;html=1;" parent="1" vertex="1">
          <mxGeometry x="933.5" y="100" width="120" height="80" as="geometry" />
        </mxCell>
        <mxCell id="72HqIzuM232NBAquBINw-55" value="Confirm" style="text;html=1;strokeColor=none;fillColor=none;align=center;verticalAlign=middle;whiteSpace=wrap;rounded=0;" parent="1" vertex="1">
          <mxGeometry x="963.5" y="70" width="60" height="30" as="geometry" />
        </mxCell>
        <mxCell id="72HqIzuM232NBAquBINw-56" value="CONFIRM" style="text;html=1;strokeColor=none;fillColor=none;align=center;verticalAlign=middle;whiteSpace=wrap;rounded=0;" parent="1" vertex="1">
          <mxGeometry x="943.5" y="96" width="100" height="30" as="geometry" />
        </mxCell>
        <mxCell id="72HqIzuM232NBAquBINw-57" value="" style="endArrow=none;html=1;rounded=0;exitX=0;exitY=0.25;exitDx=0;exitDy=0;entryX=1;entryY=0.25;entryDx=0;entryDy=0;" parent="1" source="72HqIzuM232NBAquBINw-54" target="72HqIzuM232NBAquBINw-54" edge="1">
          <mxGeometry width="50" height="50" relative="1" as="geometry">
            <mxPoint x="993.5" y="170" as="sourcePoint" />
            <mxPoint x="1043.5" y="120" as="targetPoint" />
          </mxGeometry>
        </mxCell>
        <mxCell id="72HqIzuM232NBAquBINw-58" value="NEXT &amp;gt;" style="text;html=1;strokeColor=none;fillColor=none;align=center;verticalAlign=middle;whiteSpace=wrap;rounded=0;" parent="1" vertex="1">
          <mxGeometry x="998.5" y="155" width="60" height="25" as="geometry" />
        </mxCell>
        <mxCell id="72HqIzuM232NBAquBINw-59" value="&lt;div style=&quot;&quot;&gt;Length&amp;nbsp; &amp;nbsp;: ... mm&lt;br&gt;Quantity: ... PCS&lt;/div&gt;" style="text;html=1;strokeColor=none;fillColor=none;align=left;verticalAlign=middle;whiteSpace=wrap;rounded=0;" parent="1" vertex="1">
          <mxGeometry x="938" y="119" width="111" height="44" as="geometry" />
        </mxCell>
        <mxCell id="72HqIzuM232NBAquBINw-60" value="&amp;lt; BACK" style="text;html=1;strokeColor=none;fillColor=none;align=center;verticalAlign=middle;whiteSpace=wrap;rounded=0;" parent="1" vertex="1">
          <mxGeometry x="929.5" y="155" width="60" height="30" as="geometry" />
        </mxCell>
        <mxCell id="72HqIzuM232NBAquBINw-95" style="edgeStyle=orthogonalEdgeStyle;rounded=0;orthogonalLoop=1;jettySize=auto;html=1;entryX=0;entryY=0.5;entryDx=0;entryDy=0;fontSize=8;" parent="1" source="72HqIzuM232NBAquBINw-62" target="72HqIzuM232NBAquBINw-1" edge="1">
          <mxGeometry relative="1" as="geometry">
            <Array as="points">
              <mxPoint x="1379.5" y="140" />
              <mxPoint x="1379.5" y="440" />
              <mxPoint x="299.5" y="440" />
              <mxPoint x="299.5" y="140" />
            </Array>
          </mxGeometry>
        </mxCell>
        <mxCell id="72HqIzuM232NBAquBINw-62" value="" style="rounded=0;whiteSpace=wrap;html=1;" parent="1" vertex="1">
          <mxGeometry x="1229.5" y="100" width="120" height="80" as="geometry" />
        </mxCell>
        <mxCell id="72HqIzuM232NBAquBINw-63" value="Complete" style="text;html=1;strokeColor=none;fillColor=none;align=center;verticalAlign=middle;whiteSpace=wrap;rounded=0;" parent="1" vertex="1">
          <mxGeometry x="1259.5" y="70" width="60" height="30" as="geometry" />
        </mxCell>
        <mxCell id="72HqIzuM232NBAquBINw-64" value="COMPLETE" style="text;html=1;strokeColor=none;fillColor=none;align=center;verticalAlign=middle;whiteSpace=wrap;rounded=0;" parent="1" vertex="1">
          <mxGeometry x="1239.5" y="126" width="100" height="30" as="geometry" />
        </mxCell>
        <mxCell id="72HqIzuM232NBAquBINw-93" style="edgeStyle=orthogonalEdgeStyle;rounded=0;orthogonalLoop=1;jettySize=auto;html=1;entryX=0;entryY=0.5;entryDx=0;entryDy=0;fontSize=8;" parent="1" source="72HqIzuM232NBAquBINw-74" target="72HqIzuM232NBAquBINw-62" edge="1">
          <mxGeometry relative="1" as="geometry" />
        </mxCell>
        <mxCell id="72HqIzuM232NBAquBINw-74" value="" style="rounded=0;whiteSpace=wrap;html=1;" parent="1" vertex="1">
          <mxGeometry x="1083.5" y="100" width="120" height="80" as="geometry" />
        </mxCell>
        <mxCell id="72HqIzuM232NBAquBINw-75" value="CurrentlyCutting" style="text;html=1;strokeColor=none;fillColor=none;align=center;verticalAlign=middle;whiteSpace=wrap;rounded=0;" parent="1" vertex="1">
          <mxGeometry x="1113.5" y="70" width="60" height="30" as="geometry" />
        </mxCell>
        <mxCell id="72HqIzuM232NBAquBINw-76" value="PROCESSING" style="text;html=1;strokeColor=none;fillColor=none;align=center;verticalAlign=middle;whiteSpace=wrap;rounded=0;" parent="1" vertex="1">
          <mxGeometry x="1093.5" y="96" width="100" height="30" as="geometry" />
        </mxCell>
        <mxCell id="72HqIzuM232NBAquBINw-77" value="" style="endArrow=none;html=1;rounded=0;exitX=0;exitY=0.25;exitDx=0;exitDy=0;entryX=1;entryY=0.25;entryDx=0;entryDy=0;" parent="1" source="72HqIzuM232NBAquBINw-74" target="72HqIzuM232NBAquBINw-74" edge="1">
          <mxGeometry width="50" height="50" relative="1" as="geometry">
            <mxPoint x="1143.5" y="170" as="sourcePoint" />
            <mxPoint x="1193.5" y="120" as="targetPoint" />
          </mxGeometry>
        </mxCell>
        <mxCell id="72HqIzuM232NBAquBINw-79" value="&lt;div style=&quot;&quot;&gt;Length&amp;nbsp; &amp;nbsp;: ... mm&lt;br&gt;&amp;nbsp;.../... PCS&lt;/div&gt;" style="text;html=1;strokeColor=none;fillColor=none;align=left;verticalAlign=middle;whiteSpace=wrap;rounded=0;" parent="1" vertex="1">
          <mxGeometry x="1093.5" y="126" width="111" height="44" as="geometry" />
        </mxCell>
        <mxCell id="72HqIzuM232NBAquBINw-90" value="" style="endArrow=classic;html=1;rounded=0;fontSize=8;exitX=0.5;exitY=1;exitDx=0;exitDy=0;" parent="1" source="72HqIzuM232NBAquBINw-33" edge="1">
          <mxGeometry width="50" height="50" relative="1" as="geometry">
            <mxPoint x="919.5" y="320" as="sourcePoint" />
            <mxPoint x="878.5" y="320" as="targetPoint" />
          </mxGeometry>
        </mxCell>
        <mxCell id="72HqIzuM232NBAquBINw-96" value="&lt;font style=&quot;font-size: 12px;&quot;&gt;3s&lt;/font&gt;" style="text;html=1;strokeColor=none;fillColor=none;align=center;verticalAlign=middle;whiteSpace=wrap;rounded=0;fontSize=8;" parent="1" vertex="1">
          <mxGeometry x="1333.5" y="117" width="60" height="30" as="geometry" />
        </mxCell>
        <mxCell id="72HqIzuM232NBAquBINw-97" value="&lt;font style=&quot;font-size: 12px;&quot;&gt;V1.0&lt;/font&gt;" style="text;html=1;strokeColor=none;fillColor=none;align=center;verticalAlign=middle;whiteSpace=wrap;rounded=0;fontSize=14;" parent="1" vertex="1">
          <mxGeometry x="309.5" y="133" width="60" height="30" as="geometry" />
        </mxCell>
        <mxCell id="mdiz8KePNMLaYf7aMfJe-1" style="edgeStyle=orthogonalEdgeStyle;rounded=0;orthogonalLoop=1;jettySize=auto;html=1;entryX=0;entryY=0.5;entryDx=0;entryDy=0;fontSize=8;" parent="1" source="mdiz8KePNMLaYf7aMfJe-2" target="mdiz8KePNMLaYf7aMfJe-7" edge="1">
          <mxGeometry relative="1" as="geometry" />
        </mxCell>
        <mxCell id="mdiz8KePNMLaYf7aMfJe-2" value="" style="rounded=0;whiteSpace=wrap;html=1;" parent="1" vertex="1">
          <mxGeometry x="581" y="670" width="120" height="80" as="geometry" />
        </mxCell>
        <mxCell id="mdiz8KePNMLaYf7aMfJe-3" value="HomeScreen" style="text;html=1;strokeColor=none;fillColor=none;align=center;verticalAlign=middle;whiteSpace=wrap;rounded=0;" parent="1" vertex="1">
          <mxGeometry x="611" y="640" width="60" height="30" as="geometry" />
        </mxCell>
        <mxCell id="mdiz8KePNMLaYf7aMfJe-4" value="&lt;font style=&quot;font-size: 14px;&quot;&gt;AUTO CUTTING&lt;/font&gt;" style="text;html=1;strokeColor=none;fillColor=none;align=center;verticalAlign=middle;whiteSpace=wrap;rounded=0;" parent="1" vertex="1">
          <mxGeometry x="586" y="679" width="110" height="46" as="geometry" />
        </mxCell>
        <mxCell id="mdiz8KePNMLaYf7aMfJe-5" value="NEXT &amp;gt;" style="text;html=1;strokeColor=none;fillColor=none;align=center;verticalAlign=middle;whiteSpace=wrap;rounded=0;" parent="1" vertex="1">
          <mxGeometry x="646" y="725" width="60" height="30" as="geometry" />
        </mxCell>
        <mxCell id="mdiz8KePNMLaYf7aMfJe-6" style="edgeStyle=orthogonalEdgeStyle;rounded=0;orthogonalLoop=1;jettySize=auto;html=1;entryX=0;entryY=0.5;entryDx=0;entryDy=0;fontSize=8;" parent="1" source="mdiz8KePNMLaYf7aMfJe-7" target="mdiz8KePNMLaYf7aMfJe-15" edge="1">
          <mxGeometry relative="1" as="geometry" />
        </mxCell>
        <mxCell id="mdiz8KePNMLaYf7aMfJe-7" value="" style="rounded=0;whiteSpace=wrap;html=1;" parent="1" vertex="1">
          <mxGeometry x="741" y="670" width="120" height="80" as="geometry" />
        </mxCell>
        <mxCell id="mdiz8KePNMLaYf7aMfJe-8" value="ChooseLength" style="text;html=1;strokeColor=none;fillColor=none;align=center;verticalAlign=middle;whiteSpace=wrap;rounded=0;" parent="1" vertex="1">
          <mxGeometry x="771" y="640" width="60" height="30" as="geometry" />
        </mxCell>
        <mxCell id="mdiz8KePNMLaYf7aMfJe-9" value="LENGTH" style="text;html=1;strokeColor=none;fillColor=none;align=center;verticalAlign=middle;whiteSpace=wrap;rounded=0;" parent="1" vertex="1">
          <mxGeometry x="751" y="666" width="100" height="30" as="geometry" />
        </mxCell>
        <mxCell id="mdiz8KePNMLaYf7aMfJe-10" value="" style="endArrow=none;html=1;rounded=0;exitX=0;exitY=0.25;exitDx=0;exitDy=0;entryX=1;entryY=0.25;entryDx=0;entryDy=0;" parent="1" source="mdiz8KePNMLaYf7aMfJe-7" target="mdiz8KePNMLaYf7aMfJe-7" edge="1">
          <mxGeometry width="50" height="50" relative="1" as="geometry">
            <mxPoint x="801" y="740" as="sourcePoint" />
            <mxPoint x="851" y="690" as="targetPoint" />
          </mxGeometry>
        </mxCell>
        <mxCell id="mdiz8KePNMLaYf7aMfJe-11" value="NEXT &amp;gt;" style="text;html=1;strokeColor=none;fillColor=none;align=center;verticalAlign=middle;whiteSpace=wrap;rounded=0;" parent="1" vertex="1">
          <mxGeometry x="806" y="725" width="60" height="30" as="geometry" />
        </mxCell>
        <mxCell id="mdiz8KePNMLaYf7aMfJe-12" value=".. mm" style="text;html=1;strokeColor=none;fillColor=none;align=center;verticalAlign=middle;whiteSpace=wrap;rounded=0;" parent="1" vertex="1">
          <mxGeometry x="791" y="696" width="60" height="30" as="geometry" />
        </mxCell>
        <mxCell id="mdiz8KePNMLaYf7aMfJe-13" value="&amp;lt; BACK" style="text;html=1;strokeColor=none;fillColor=none;align=center;verticalAlign=middle;whiteSpace=wrap;rounded=0;" parent="1" vertex="1">
          <mxGeometry x="737" y="725" width="60" height="30" as="geometry" />
        </mxCell>
        <mxCell id="mdiz8KePNMLaYf7aMfJe-15" value="" style="rounded=0;whiteSpace=wrap;html=1;" parent="1" vertex="1">
          <mxGeometry x="895" y="670" width="120" height="80" as="geometry" />
        </mxCell>
        <mxCell id="mdiz8KePNMLaYf7aMfJe-16" value="ChooseQuantity" style="text;html=1;strokeColor=none;fillColor=none;align=center;verticalAlign=middle;whiteSpace=wrap;rounded=0;" parent="1" vertex="1">
          <mxGeometry x="925" y="640" width="60" height="30" as="geometry" />
        </mxCell>
        <mxCell id="mdiz8KePNMLaYf7aMfJe-17" value="QUANTITY" style="text;html=1;strokeColor=none;fillColor=none;align=center;verticalAlign=middle;whiteSpace=wrap;rounded=0;" parent="1" vertex="1">
          <mxGeometry x="905" y="666" width="100" height="30" as="geometry" />
        </mxCell>
        <mxCell id="mdiz8KePNMLaYf7aMfJe-18" value="" style="endArrow=none;html=1;rounded=0;exitX=0;exitY=0.25;exitDx=0;exitDy=0;entryX=1;entryY=0.25;entryDx=0;entryDy=0;" parent="1" source="mdiz8KePNMLaYf7aMfJe-15" target="mdiz8KePNMLaYf7aMfJe-15" edge="1">
          <mxGeometry width="50" height="50" relative="1" as="geometry">
            <mxPoint x="955" y="740" as="sourcePoint" />
            <mxPoint x="1005" y="690" as="targetPoint" />
          </mxGeometry>
        </mxCell>
        <mxCell id="mdiz8KePNMLaYf7aMfJe-19" value="NEXT &amp;gt;" style="text;html=1;strokeColor=none;fillColor=none;align=center;verticalAlign=middle;whiteSpace=wrap;rounded=0;" parent="1" vertex="1">
          <mxGeometry x="960" y="725" width="60" height="30" as="geometry" />
        </mxCell>
        <mxCell id="mdiz8KePNMLaYf7aMfJe-20" value=".. PCS" style="text;html=1;strokeColor=none;fillColor=none;align=center;verticalAlign=middle;whiteSpace=wrap;rounded=0;" parent="1" vertex="1">
          <mxGeometry x="945" y="696" width="60" height="30" as="geometry" />
        </mxCell>
        <mxCell id="mdiz8KePNMLaYf7aMfJe-21" value="&amp;lt; BACK" style="text;html=1;strokeColor=none;fillColor=none;align=center;verticalAlign=middle;whiteSpace=wrap;rounded=0;" parent="1" vertex="1">
          <mxGeometry x="891" y="725" width="60" height="30" as="geometry" />
        </mxCell>
        <mxCell id="mdiz8KePNMLaYf7aMfJe-22" value="" style="rounded=0;whiteSpace=wrap;html=1;" parent="1" vertex="1">
          <mxGeometry x="423" y="670" width="120" height="80" as="geometry" />
        </mxCell>
        <mxCell id="mdiz8KePNMLaYf7aMfJe-23" value="DiameterSetting" style="text;html=1;strokeColor=none;fillColor=none;align=center;verticalAlign=middle;whiteSpace=wrap;rounded=0;" parent="1" vertex="1">
          <mxGeometry x="453" y="640" width="60" height="30" as="geometry" />
        </mxCell>
        <mxCell id="mdiz8KePNMLaYf7aMfJe-24" value="SETTING" style="text;html=1;strokeColor=none;fillColor=none;align=center;verticalAlign=middle;whiteSpace=wrap;rounded=0;" parent="1" vertex="1">
          <mxGeometry x="433" y="666" width="100" height="30" as="geometry" />
        </mxCell>
        <mxCell id="mdiz8KePNMLaYf7aMfJe-25" value="" style="endArrow=none;html=1;rounded=0;exitX=0;exitY=0.25;exitDx=0;exitDy=0;entryX=1;entryY=0.25;entryDx=0;entryDy=0;" parent="1" source="mdiz8KePNMLaYf7aMfJe-22" target="mdiz8KePNMLaYf7aMfJe-22" edge="1">
          <mxGeometry width="50" height="50" relative="1" as="geometry">
            <mxPoint x="483" y="740" as="sourcePoint" />
            <mxPoint x="533" y="690" as="targetPoint" />
          </mxGeometry>
        </mxCell>
        <mxCell id="mdiz8KePNMLaYf7aMfJe-27" value="&lt;font style=&quot;font-size: 10px;&quot;&gt;HOME &amp;gt;&lt;/font&gt;" style="text;html=1;strokeColor=none;fillColor=none;align=center;verticalAlign=middle;whiteSpace=wrap;rounded=0;" parent="1" vertex="1">
          <mxGeometry x="488" y="725" width="60" height="30" as="geometry" />
        </mxCell>
        <mxCell id="mdiz8KePNMLaYf7aMfJe-28" value="&lt;font style=&quot;font-size: 8px;&quot;&gt;&lt;span style=&quot;background-color: rgb(255, 128, 0);&quot;&gt;D: .. mm&lt;br&gt;&lt;/span&gt;A: .. mm&lt;br&gt;&lt;/font&gt;" style="text;html=1;align=left;verticalAlign=middle;whiteSpace=wrap;rounded=0;" parent="1" vertex="1">
          <mxGeometry x="425" y="691.5" width="54" height="39" as="geometry" />
        </mxCell>
        <mxCell id="mdiz8KePNMLaYf7aMfJe-29" value="&lt;font style=&quot;font-size: 10px;&quot;&gt;&amp;lt; ANGLE&lt;/font&gt;" style="text;html=1;strokeColor=none;fillColor=none;align=center;verticalAlign=middle;whiteSpace=wrap;rounded=0;" parent="1" vertex="1">
          <mxGeometry x="419" y="725" width="60" height="30" as="geometry" />
        </mxCell>
        <mxCell id="mdiz8KePNMLaYf7aMfJe-30" value="" style="rounded=0;whiteSpace=wrap;html=1;" parent="1" vertex="1">
          <mxGeometry x="277" y="670" width="120" height="80" as="geometry" />
        </mxCell>
        <mxCell id="mdiz8KePNMLaYf7aMfJe-31" value="CuttingAngleSetting" style="text;html=1;strokeColor=none;fillColor=none;align=center;verticalAlign=middle;whiteSpace=wrap;rounded=0;" parent="1" vertex="1">
          <mxGeometry x="280.5" y="645" width="116" height="30" as="geometry" />
        </mxCell>
        <mxCell id="mdiz8KePNMLaYf7aMfJe-32" value="SETTING" style="text;html=1;strokeColor=none;fillColor=none;align=center;verticalAlign=middle;whiteSpace=wrap;rounded=0;" parent="1" vertex="1">
          <mxGeometry x="287" y="666" width="100" height="30" as="geometry" />
        </mxCell>
        <mxCell id="mdiz8KePNMLaYf7aMfJe-33" value="" style="endArrow=none;html=1;rounded=0;exitX=0;exitY=0.25;exitDx=0;exitDy=0;entryX=1;entryY=0.25;entryDx=0;entryDy=0;" parent="1" source="mdiz8KePNMLaYf7aMfJe-30" target="mdiz8KePNMLaYf7aMfJe-30" edge="1">
          <mxGeometry width="50" height="50" relative="1" as="geometry">
            <mxPoint x="337" y="740" as="sourcePoint" />
            <mxPoint x="387" y="690" as="targetPoint" />
          </mxGeometry>
        </mxCell>
        <mxCell id="mdiz8KePNMLaYf7aMfJe-34" value="&lt;font style=&quot;font-size: 10px;&quot;&gt;DIAMETER&amp;gt;&lt;/font&gt;" style="text;html=1;strokeColor=none;fillColor=none;align=center;verticalAlign=middle;whiteSpace=wrap;rounded=0;" parent="1" vertex="1">
          <mxGeometry x="335" y="728" width="60" height="25" as="geometry" />
        </mxCell>
        <mxCell id="mdiz8KePNMLaYf7aMfJe-35" value="&lt;font style=&quot;font-size: 8px;&quot;&gt;&lt;span style=&quot;background-color: rgb(255, 255, 255);&quot;&gt;D: .. mm&lt;/span&gt;&lt;br&gt;&lt;span style=&quot;background-color: rgb(255, 128, 0);&quot;&gt;A: .. mm&lt;/span&gt;&lt;br&gt;&lt;/font&gt;" style="text;html=1;align=left;verticalAlign=middle;whiteSpace=wrap;rounded=0;" parent="1" vertex="1">
          <mxGeometry x="279" y="691" width="60" height="39" as="geometry" />
        </mxCell>
        <mxCell id="mdiz8KePNMLaYf7aMfJe-36" value="&lt;font style=&quot;font-size: 10px;&quot;&gt;&amp;lt;SPEED&lt;/font&gt;" style="text;html=1;strokeColor=none;fillColor=none;align=center;verticalAlign=middle;whiteSpace=wrap;rounded=0;" parent="1" vertex="1">
          <mxGeometry x="270" y="726" width="60" height="30" as="geometry" />
        </mxCell>
        <mxCell id="mdiz8KePNMLaYf7aMfJe-38" value="" style="rounded=0;whiteSpace=wrap;html=1;" parent="1" vertex="1">
          <mxGeometry x="127" y="670" width="120" height="80" as="geometry" />
        </mxCell>
        <mxCell id="mdiz8KePNMLaYf7aMfJe-39" value="SpeedSetting" style="text;html=1;strokeColor=none;fillColor=none;align=center;verticalAlign=middle;whiteSpace=wrap;rounded=0;" parent="1" vertex="1">
          <mxGeometry x="157" y="645" width="60" height="30" as="geometry" />
        </mxCell>
        <mxCell id="mdiz8KePNMLaYf7aMfJe-40" value="SETTING" style="text;html=1;strokeColor=none;fillColor=none;align=center;verticalAlign=middle;whiteSpace=wrap;rounded=0;" parent="1" vertex="1">
          <mxGeometry x="137" y="666" width="100" height="30" as="geometry" />
        </mxCell>
        <mxCell id="mdiz8KePNMLaYf7aMfJe-41" value="" style="endArrow=none;html=1;rounded=0;exitX=0;exitY=0.25;exitDx=0;exitDy=0;entryX=1;entryY=0.25;entryDx=0;entryDy=0;" parent="1" source="mdiz8KePNMLaYf7aMfJe-38" target="mdiz8KePNMLaYf7aMfJe-38" edge="1">
          <mxGeometry width="50" height="50" relative="1" as="geometry">
            <mxPoint x="187" y="740" as="sourcePoint" />
            <mxPoint x="237" y="690" as="targetPoint" />
          </mxGeometry>
        </mxCell>
        <mxCell id="mdiz8KePNMLaYf7aMfJe-42" value="&lt;font style=&quot;font-size: 10px;&quot;&gt;ANGLE&amp;gt;&lt;/font&gt;" style="text;html=1;strokeColor=none;fillColor=none;align=center;verticalAlign=middle;whiteSpace=wrap;rounded=0;" parent="1" vertex="1">
          <mxGeometry x="193" y="726" width="60" height="25" as="geometry" />
        </mxCell>
        <mxCell id="mdiz8KePNMLaYf7aMfJe-43" value="&lt;font style=&quot;font-size: 8px;&quot;&gt;&lt;span style=&quot;background-color: rgb(255, 255, 255);&quot;&gt;D: .. mm&lt;br&gt;A: .. mm&lt;/span&gt;&lt;br&gt;&lt;/font&gt;" style="text;html=1;align=left;verticalAlign=middle;whiteSpace=wrap;rounded=0;" parent="1" vertex="1">
          <mxGeometry x="129" y="691" width="60" height="39" as="geometry" />
        </mxCell>
        <mxCell id="mdiz8KePNMLaYf7aMfJe-45" value="&lt;font style=&quot;font-size: 8px;&quot;&gt;&lt;span style=&quot;background-color: rgb(255, 255, 255);&quot;&gt;S: ..&amp;nbsp;&lt;/span&gt;&lt;br&gt;&lt;br&gt;&lt;/font&gt;" style="text;html=1;align=left;verticalAlign=middle;whiteSpace=wrap;rounded=0;" parent="1" vertex="1">
          <mxGeometry x="488" y="691.5" width="54" height="39" as="geometry" />
        </mxCell>
        <mxCell id="mdiz8KePNMLaYf7aMfJe-46" value="&lt;font style=&quot;font-size: 8px;&quot;&gt;&lt;span style=&quot;background-color: rgb(255, 255, 255);&quot;&gt;S: ..&amp;nbsp;&lt;/span&gt;&lt;br&gt;&lt;br&gt;&lt;/font&gt;" style="text;html=1;align=left;verticalAlign=middle;whiteSpace=wrap;rounded=0;" parent="1" vertex="1">
          <mxGeometry x="343" y="691.5" width="54" height="39" as="geometry" />
        </mxCell>
        <mxCell id="mdiz8KePNMLaYf7aMfJe-47" value="&lt;font style=&quot;font-size: 8px;&quot;&gt;&lt;span style=&quot;background-color: rgb(255, 128, 0);&quot;&gt;S: ..&amp;nbsp;&lt;/span&gt;&lt;br&gt;&lt;br&gt;&lt;/font&gt;" style="text;html=1;align=left;verticalAlign=middle;whiteSpace=wrap;rounded=0;" parent="1" vertex="1">
          <mxGeometry x="192.5" y="691" width="54" height="39" as="geometry" />
        </mxCell>
        <mxCell id="mdiz8KePNMLaYf7aMfJe-48" style="edgeStyle=orthogonalEdgeStyle;rounded=0;orthogonalLoop=1;jettySize=auto;html=1;entryX=0;entryY=0.5;entryDx=0;entryDy=0;fontSize=8;" parent="1" source="mdiz8KePNMLaYf7aMfJe-49" target="mdiz8KePNMLaYf7aMfJe-61" edge="1">
          <mxGeometry relative="1" as="geometry" />
        </mxCell>
        <mxCell id="mdiz8KePNMLaYf7aMfJe-49" value="" style="rounded=0;whiteSpace=wrap;html=1;" parent="1" vertex="1">
          <mxGeometry x="1051" y="670" width="120" height="80" as="geometry" />
        </mxCell>
        <mxCell id="mdiz8KePNMLaYf7aMfJe-50" value="Confirm" style="text;html=1;strokeColor=none;fillColor=none;align=center;verticalAlign=middle;whiteSpace=wrap;rounded=0;" parent="1" vertex="1">
          <mxGeometry x="1081" y="640" width="60" height="30" as="geometry" />
        </mxCell>
        <mxCell id="mdiz8KePNMLaYf7aMfJe-51" value="CONFIRM" style="text;html=1;strokeColor=none;fillColor=none;align=center;verticalAlign=middle;whiteSpace=wrap;rounded=0;" parent="1" vertex="1">
          <mxGeometry x="1061" y="666" width="100" height="30" as="geometry" />
        </mxCell>
        <mxCell id="mdiz8KePNMLaYf7aMfJe-52" value="" style="endArrow=none;html=1;rounded=0;exitX=0;exitY=0.25;exitDx=0;exitDy=0;entryX=1;entryY=0.25;entryDx=0;entryDy=0;" parent="1" source="mdiz8KePNMLaYf7aMfJe-49" target="mdiz8KePNMLaYf7aMfJe-49" edge="1">
          <mxGeometry width="50" height="50" relative="1" as="geometry">
            <mxPoint x="1111" y="740" as="sourcePoint" />
            <mxPoint x="1161" y="690" as="targetPoint" />
          </mxGeometry>
        </mxCell>
        <mxCell id="mdiz8KePNMLaYf7aMfJe-53" value="NEXT &amp;gt;" style="text;html=1;strokeColor=none;fillColor=none;align=center;verticalAlign=middle;whiteSpace=wrap;rounded=0;" parent="1" vertex="1">
          <mxGeometry x="1116" y="725" width="60" height="25" as="geometry" />
        </mxCell>
        <mxCell id="mdiz8KePNMLaYf7aMfJe-54" value="&lt;div style=&quot;&quot;&gt;Length&amp;nbsp; &amp;nbsp;: ... mm&lt;br&gt;Quantity: ... PCS&lt;/div&gt;" style="text;html=1;strokeColor=none;fillColor=none;align=left;verticalAlign=middle;whiteSpace=wrap;rounded=0;" parent="1" vertex="1">
          <mxGeometry x="1055.5" y="690" width="111" height="43" as="geometry" />
        </mxCell>
        <mxCell id="mdiz8KePNMLaYf7aMfJe-55" value="&amp;lt; BACK" style="text;html=1;strokeColor=none;fillColor=none;align=center;verticalAlign=middle;whiteSpace=wrap;rounded=0;" parent="1" vertex="1">
          <mxGeometry x="1047" y="725" width="60" height="30" as="geometry" />
        </mxCell>
        <mxCell id="mdiz8KePNMLaYf7aMfJe-85" style="edgeStyle=orthogonalEdgeStyle;rounded=0;orthogonalLoop=1;jettySize=auto;html=1;entryX=0;entryY=0;entryDx=0;entryDy=0;" parent="1" source="mdiz8KePNMLaYf7aMfJe-57" target="mdiz8KePNMLaYf7aMfJe-77" edge="1">
          <mxGeometry relative="1" as="geometry">
            <Array as="points">
              <mxPoint x="1513" y="710" />
              <mxPoint x="1513" y="850" />
              <mxPoint x="613" y="850" />
            </Array>
          </mxGeometry>
        </mxCell>
        <mxCell id="mdiz8KePNMLaYf7aMfJe-57" value="" style="rounded=0;whiteSpace=wrap;html=1;" parent="1" vertex="1">
          <mxGeometry x="1347" y="670" width="120" height="80" as="geometry" />
        </mxCell>
        <mxCell id="mdiz8KePNMLaYf7aMfJe-58" value="Complete" style="text;html=1;strokeColor=none;fillColor=none;align=center;verticalAlign=middle;whiteSpace=wrap;rounded=0;" parent="1" vertex="1">
          <mxGeometry x="1377" y="640" width="60" height="30" as="geometry" />
        </mxCell>
        <mxCell id="mdiz8KePNMLaYf7aMfJe-59" value="COMPLETE" style="text;html=1;strokeColor=none;fillColor=none;align=center;verticalAlign=middle;whiteSpace=wrap;rounded=0;" parent="1" vertex="1">
          <mxGeometry x="1357" y="696" width="100" height="30" as="geometry" />
        </mxCell>
        <mxCell id="mdiz8KePNMLaYf7aMfJe-60" style="edgeStyle=orthogonalEdgeStyle;rounded=0;orthogonalLoop=1;jettySize=auto;html=1;entryX=0;entryY=0.5;entryDx=0;entryDy=0;fontSize=8;" parent="1" source="mdiz8KePNMLaYf7aMfJe-61" target="mdiz8KePNMLaYf7aMfJe-57" edge="1">
          <mxGeometry relative="1" as="geometry" />
        </mxCell>
        <mxCell id="mdiz8KePNMLaYf7aMfJe-61" value="" style="rounded=0;whiteSpace=wrap;html=1;" parent="1" vertex="1">
          <mxGeometry x="1201" y="670" width="120" height="80" as="geometry" />
        </mxCell>
        <mxCell id="mdiz8KePNMLaYf7aMfJe-62" value="CurrentlyCutting" style="text;html=1;strokeColor=none;fillColor=none;align=center;verticalAlign=middle;whiteSpace=wrap;rounded=0;" parent="1" vertex="1">
          <mxGeometry x="1231" y="640" width="60" height="30" as="geometry" />
        </mxCell>
        <mxCell id="mdiz8KePNMLaYf7aMfJe-63" value="PROCESSING" style="text;html=1;strokeColor=none;fillColor=none;align=center;verticalAlign=middle;whiteSpace=wrap;rounded=0;" parent="1" vertex="1">
          <mxGeometry x="1211" y="666" width="100" height="30" as="geometry" />
        </mxCell>
        <mxCell id="mdiz8KePNMLaYf7aMfJe-64" value="" style="endArrow=none;html=1;rounded=0;exitX=0;exitY=0.25;exitDx=0;exitDy=0;entryX=1;entryY=0.25;entryDx=0;entryDy=0;" parent="1" source="mdiz8KePNMLaYf7aMfJe-61" target="mdiz8KePNMLaYf7aMfJe-61" edge="1">
          <mxGeometry width="50" height="50" relative="1" as="geometry">
            <mxPoint x="1261" y="740" as="sourcePoint" />
            <mxPoint x="1311" y="690" as="targetPoint" />
          </mxGeometry>
        </mxCell>
        <mxCell id="mdiz8KePNMLaYf7aMfJe-65" value="&lt;div style=&quot;&quot;&gt;Length&amp;nbsp; &amp;nbsp;: ... mm&lt;br&gt;&amp;nbsp;.../... PCS&lt;/div&gt;" style="text;html=1;strokeColor=none;fillColor=none;align=left;verticalAlign=middle;whiteSpace=wrap;rounded=0;" parent="1" vertex="1">
          <mxGeometry x="1211" y="696" width="111" height="44" as="geometry" />
        </mxCell>
        <mxCell id="mdiz8KePNMLaYf7aMfJe-67" value="&lt;font style=&quot;font-size: 12px;&quot;&gt;1s&lt;/font&gt;" style="text;html=1;strokeColor=none;fillColor=none;align=center;verticalAlign=middle;whiteSpace=wrap;rounded=0;fontSize=8;" parent="1" vertex="1">
          <mxGeometry x="1457" y="679" width="60" height="30" as="geometry" />
        </mxCell>
        <mxCell id="mdiz8KePNMLaYf7aMfJe-68" value="&lt;font style=&quot;font-size: 12px;&quot;&gt;V1.0&lt;/font&gt;" style="text;html=1;strokeColor=none;fillColor=none;align=center;verticalAlign=middle;whiteSpace=wrap;rounded=0;fontSize=14;" parent="1" vertex="1">
          <mxGeometry x="571" y="703" width="60" height="30" as="geometry" />
        </mxCell>
        <mxCell id="mdiz8KePNMLaYf7aMfJe-72" value="&amp;lt; SET" style="text;html=1;strokeColor=none;fillColor=none;align=center;verticalAlign=middle;whiteSpace=wrap;rounded=0;" parent="1" vertex="1">
          <mxGeometry x="569" y="725" width="60" height="30" as="geometry" />
        </mxCell>
        <mxCell id="mdiz8KePNMLaYf7aMfJe-74" value="state 0" style="text;html=1;strokeColor=none;fillColor=none;align=center;verticalAlign=middle;whiteSpace=wrap;rounded=0;" parent="1" vertex="1">
          <mxGeometry x="157" y="750" width="60" height="30" as="geometry" />
        </mxCell>
        <mxCell id="mdiz8KePNMLaYf7aMfJe-75" value="state 1" style="text;html=1;strokeColor=none;fillColor=none;align=center;verticalAlign=middle;whiteSpace=wrap;rounded=0;" parent="1" vertex="1">
          <mxGeometry x="313" y="750" width="60" height="30" as="geometry" />
        </mxCell>
        <mxCell id="mdiz8KePNMLaYf7aMfJe-76" value="state 2" style="text;html=1;strokeColor=none;fillColor=none;align=center;verticalAlign=middle;whiteSpace=wrap;rounded=0;" parent="1" vertex="1">
          <mxGeometry x="453" y="750" width="60" height="30" as="geometry" />
        </mxCell>
        <mxCell id="mdiz8KePNMLaYf7aMfJe-77" value="state 3" style="text;html=1;strokeColor=none;fillColor=none;align=center;verticalAlign=middle;whiteSpace=wrap;rounded=0;" parent="1" vertex="1">
          <mxGeometry x="613" y="750" width="60" height="30" as="geometry" />
        </mxCell>
        <mxCell id="mdiz8KePNMLaYf7aMfJe-78" value="state 4" style="text;html=1;strokeColor=none;fillColor=none;align=center;verticalAlign=middle;whiteSpace=wrap;rounded=0;" parent="1" vertex="1">
          <mxGeometry x="771" y="750" width="60" height="30" as="geometry" />
        </mxCell>
        <mxCell id="mdiz8KePNMLaYf7aMfJe-79" value="state 5" style="text;html=1;strokeColor=none;fillColor=none;align=center;verticalAlign=middle;whiteSpace=wrap;rounded=0;" parent="1" vertex="1">
          <mxGeometry x="928" y="750" width="60" height="30" as="geometry" />
        </mxCell>
        <mxCell id="mdiz8KePNMLaYf7aMfJe-80" value="state 6" style="text;html=1;strokeColor=none;fillColor=none;align=center;verticalAlign=middle;whiteSpace=wrap;rounded=0;" parent="1" vertex="1">
          <mxGeometry x="1081" y="750" width="60" height="30" as="geometry" />
        </mxCell>
        <mxCell id="mdiz8KePNMLaYf7aMfJe-81" value="state 7" style="text;html=1;strokeColor=none;fillColor=none;align=center;verticalAlign=middle;whiteSpace=wrap;rounded=0;" parent="1" vertex="1">
          <mxGeometry x="1231" y="750" width="60" height="30" as="geometry" />
        </mxCell>
        <mxCell id="mdiz8KePNMLaYf7aMfJe-82" value="state 8" style="text;html=1;strokeColor=none;fillColor=none;align=center;verticalAlign=middle;whiteSpace=wrap;rounded=0;" parent="1" vertex="1">
          <mxGeometry x="1377" y="750" width="60" height="30" as="geometry" />
        </mxCell>
        <mxCell id="mdiz8KePNMLaYf7aMfJe-86" value="" style="endArrow=classic;startArrow=classic;html=1;rounded=0;entryX=0;entryY=0.5;entryDx=0;entryDy=0;exitX=1;exitY=0.5;exitDx=0;exitDy=0;" parent="1" source="mdiz8KePNMLaYf7aMfJe-22" target="mdiz8KePNMLaYf7aMfJe-2" edge="1">
          <mxGeometry width="50" height="50" relative="1" as="geometry">
            <mxPoint x="503" y="850" as="sourcePoint" />
            <mxPoint x="553" y="800" as="targetPoint" />
          </mxGeometry>
        </mxCell>
        <mxCell id="mdiz8KePNMLaYf7aMfJe-87" value="" style="endArrow=classic;startArrow=classic;html=1;rounded=0;entryX=0;entryY=0.5;entryDx=0;entryDy=0;exitX=1;exitY=0.5;exitDx=0;exitDy=0;" parent="1" source="mdiz8KePNMLaYf7aMfJe-46" target="mdiz8KePNMLaYf7aMfJe-22" edge="1">
          <mxGeometry width="50" height="50" relative="1" as="geometry">
            <mxPoint x="397" y="711.26" as="sourcePoint" />
            <mxPoint x="435" y="711.26" as="targetPoint" />
          </mxGeometry>
        </mxCell>
        <mxCell id="mdiz8KePNMLaYf7aMfJe-88" value="" style="endArrow=classic;startArrow=classic;html=1;rounded=0;entryX=0;entryY=0.5;entryDx=0;entryDy=0;exitX=1;exitY=0.5;exitDx=0;exitDy=0;" parent="1" source="mdiz8KePNMLaYf7aMfJe-47" target="mdiz8KePNMLaYf7aMfJe-30" edge="1">
          <mxGeometry width="50" height="50" relative="1" as="geometry">
            <mxPoint x="249" y="790" as="sourcePoint" />
            <mxPoint x="287" y="790" as="targetPoint" />
          </mxGeometry>
        </mxCell>
        <mxCell id="0Egxr5-B9sbUrUBCtfe9-2" value="&lt;font style=&quot;font-size: 20px;&quot;&gt;Cũ&lt;/font&gt;" style="text;html=1;strokeColor=none;fillColor=none;align=center;verticalAlign=middle;whiteSpace=wrap;rounded=0;" parent="1" vertex="1">
          <mxGeometry x="240" y="20" width="80" height="50" as="geometry" />
        </mxCell>
        <mxCell id="r_MsDGuk_bmXL-AQdSYz-2" style="edgeStyle=orthogonalEdgeStyle;rounded=0;orthogonalLoop=1;jettySize=auto;html=1;entryX=0;entryY=0.5;entryDx=0;entryDy=0;fontSize=8;" edge="1" parent="1" source="r_MsDGuk_bmXL-AQdSYz-3" target="r_MsDGuk_bmXL-AQdSYz-8">
          <mxGeometry relative="1" as="geometry" />
        </mxCell>
        <mxCell id="r_MsDGuk_bmXL-AQdSYz-3" value="" style="rounded=0;whiteSpace=wrap;html=1;" vertex="1" parent="1">
          <mxGeometry x="589" y="1190" width="120" height="80" as="geometry" />
        </mxCell>
        <mxCell id="r_MsDGuk_bmXL-AQdSYz-4" value="HomeScreen" style="text;html=1;strokeColor=none;fillColor=none;align=center;verticalAlign=middle;whiteSpace=wrap;rounded=0;" vertex="1" parent="1">
          <mxGeometry x="619" y="1160" width="60" height="30" as="geometry" />
        </mxCell>
        <mxCell id="r_MsDGuk_bmXL-AQdSYz-5" value="&lt;font style=&quot;font-size: 14px;&quot;&gt;AUTO CUTTING&lt;/font&gt;" style="text;html=1;strokeColor=none;fillColor=none;align=center;verticalAlign=middle;whiteSpace=wrap;rounded=0;" vertex="1" parent="1">
          <mxGeometry x="594" y="1199" width="110" height="46" as="geometry" />
        </mxCell>
        <mxCell id="r_MsDGuk_bmXL-AQdSYz-6" value="NEXT &amp;gt;" style="text;html=1;strokeColor=none;fillColor=none;align=center;verticalAlign=middle;whiteSpace=wrap;rounded=0;" vertex="1" parent="1">
          <mxGeometry x="654" y="1245" width="60" height="30" as="geometry" />
        </mxCell>
        <mxCell id="r_MsDGuk_bmXL-AQdSYz-7" style="edgeStyle=orthogonalEdgeStyle;rounded=0;orthogonalLoop=1;jettySize=auto;html=1;entryX=0;entryY=0.5;entryDx=0;entryDy=0;fontSize=8;" edge="1" parent="1" source="r_MsDGuk_bmXL-AQdSYz-8" target="r_MsDGuk_bmXL-AQdSYz-15">
          <mxGeometry relative="1" as="geometry" />
        </mxCell>
        <mxCell id="r_MsDGuk_bmXL-AQdSYz-8" value="" style="rounded=0;whiteSpace=wrap;html=1;" vertex="1" parent="1">
          <mxGeometry x="749" y="1190" width="120" height="80" as="geometry" />
        </mxCell>
        <mxCell id="r_MsDGuk_bmXL-AQdSYz-9" value="ChooseLength" style="text;html=1;strokeColor=none;fillColor=none;align=center;verticalAlign=middle;whiteSpace=wrap;rounded=0;" vertex="1" parent="1">
          <mxGeometry x="779" y="1160" width="60" height="30" as="geometry" />
        </mxCell>
        <mxCell id="r_MsDGuk_bmXL-AQdSYz-10" value="LENGTH" style="text;html=1;strokeColor=none;fillColor=none;align=center;verticalAlign=middle;whiteSpace=wrap;rounded=0;" vertex="1" parent="1">
          <mxGeometry x="759" y="1186" width="100" height="30" as="geometry" />
        </mxCell>
        <mxCell id="r_MsDGuk_bmXL-AQdSYz-11" value="" style="endArrow=none;html=1;rounded=0;exitX=0;exitY=0.25;exitDx=0;exitDy=0;entryX=1;entryY=0.25;entryDx=0;entryDy=0;" edge="1" parent="1" source="r_MsDGuk_bmXL-AQdSYz-8" target="r_MsDGuk_bmXL-AQdSYz-8">
          <mxGeometry width="50" height="50" relative="1" as="geometry">
            <mxPoint x="809" y="1260" as="sourcePoint" />
            <mxPoint x="859" y="1210" as="targetPoint" />
          </mxGeometry>
        </mxCell>
        <mxCell id="r_MsDGuk_bmXL-AQdSYz-12" value="NEXT &amp;gt;" style="text;html=1;strokeColor=none;fillColor=none;align=center;verticalAlign=middle;whiteSpace=wrap;rounded=0;" vertex="1" parent="1">
          <mxGeometry x="814" y="1245" width="60" height="30" as="geometry" />
        </mxCell>
        <mxCell id="r_MsDGuk_bmXL-AQdSYz-13" value=".. mm" style="text;html=1;strokeColor=none;fillColor=none;align=center;verticalAlign=middle;whiteSpace=wrap;rounded=0;" vertex="1" parent="1">
          <mxGeometry x="799" y="1216" width="60" height="30" as="geometry" />
        </mxCell>
        <mxCell id="r_MsDGuk_bmXL-AQdSYz-14" value="&amp;lt; BACK" style="text;html=1;strokeColor=none;fillColor=none;align=center;verticalAlign=middle;whiteSpace=wrap;rounded=0;" vertex="1" parent="1">
          <mxGeometry x="745" y="1245" width="60" height="30" as="geometry" />
        </mxCell>
        <mxCell id="r_MsDGuk_bmXL-AQdSYz-15" value="" style="rounded=0;whiteSpace=wrap;html=1;" vertex="1" parent="1">
          <mxGeometry x="903" y="1190" width="120" height="80" as="geometry" />
        </mxCell>
        <mxCell id="r_MsDGuk_bmXL-AQdSYz-16" value="ChooseQuantity" style="text;html=1;strokeColor=none;fillColor=none;align=center;verticalAlign=middle;whiteSpace=wrap;rounded=0;" vertex="1" parent="1">
          <mxGeometry x="933" y="1160" width="60" height="30" as="geometry" />
        </mxCell>
        <mxCell id="r_MsDGuk_bmXL-AQdSYz-17" value="QUANTITY" style="text;html=1;strokeColor=none;fillColor=none;align=center;verticalAlign=middle;whiteSpace=wrap;rounded=0;" vertex="1" parent="1">
          <mxGeometry x="913" y="1186" width="100" height="30" as="geometry" />
        </mxCell>
        <mxCell id="r_MsDGuk_bmXL-AQdSYz-18" value="" style="endArrow=none;html=1;rounded=0;exitX=0;exitY=0.25;exitDx=0;exitDy=0;entryX=1;entryY=0.25;entryDx=0;entryDy=0;" edge="1" parent="1" source="r_MsDGuk_bmXL-AQdSYz-15" target="r_MsDGuk_bmXL-AQdSYz-15">
          <mxGeometry width="50" height="50" relative="1" as="geometry">
            <mxPoint x="963" y="1260" as="sourcePoint" />
            <mxPoint x="1013" y="1210" as="targetPoint" />
          </mxGeometry>
        </mxCell>
        <mxCell id="r_MsDGuk_bmXL-AQdSYz-19" value="NEXT &amp;gt;" style="text;html=1;strokeColor=none;fillColor=none;align=center;verticalAlign=middle;whiteSpace=wrap;rounded=0;" vertex="1" parent="1">
          <mxGeometry x="968" y="1245" width="60" height="30" as="geometry" />
        </mxCell>
        <mxCell id="r_MsDGuk_bmXL-AQdSYz-20" value=".. PCS" style="text;html=1;strokeColor=none;fillColor=none;align=center;verticalAlign=middle;whiteSpace=wrap;rounded=0;" vertex="1" parent="1">
          <mxGeometry x="953" y="1216" width="60" height="30" as="geometry" />
        </mxCell>
        <mxCell id="r_MsDGuk_bmXL-AQdSYz-21" value="&amp;lt; BACK" style="text;html=1;strokeColor=none;fillColor=none;align=center;verticalAlign=middle;whiteSpace=wrap;rounded=0;" vertex="1" parent="1">
          <mxGeometry x="899" y="1245" width="60" height="30" as="geometry" />
        </mxCell>
        <mxCell id="r_MsDGuk_bmXL-AQdSYz-22" value="" style="rounded=0;whiteSpace=wrap;html=1;" vertex="1" parent="1">
          <mxGeometry x="431" y="1190" width="120" height="80" as="geometry" />
        </mxCell>
        <mxCell id="r_MsDGuk_bmXL-AQdSYz-23" value="DiameterSetting" style="text;html=1;strokeColor=none;fillColor=none;align=center;verticalAlign=middle;whiteSpace=wrap;rounded=0;" vertex="1" parent="1">
          <mxGeometry x="461" y="1165" width="60" height="30" as="geometry" />
        </mxCell>
        <mxCell id="r_MsDGuk_bmXL-AQdSYz-24" value="SETTING" style="text;html=1;strokeColor=none;fillColor=none;align=center;verticalAlign=middle;whiteSpace=wrap;rounded=0;" vertex="1" parent="1">
          <mxGeometry x="441" y="1186" width="100" height="30" as="geometry" />
        </mxCell>
        <mxCell id="r_MsDGuk_bmXL-AQdSYz-25" value="" style="endArrow=none;html=1;rounded=0;exitX=0;exitY=0.25;exitDx=0;exitDy=0;entryX=1;entryY=0.25;entryDx=0;entryDy=0;" edge="1" parent="1" source="r_MsDGuk_bmXL-AQdSYz-22" target="r_MsDGuk_bmXL-AQdSYz-22">
          <mxGeometry width="50" height="50" relative="1" as="geometry">
            <mxPoint x="491" y="1260" as="sourcePoint" />
            <mxPoint x="541" y="1210" as="targetPoint" />
          </mxGeometry>
        </mxCell>
        <mxCell id="r_MsDGuk_bmXL-AQdSYz-26" value="&lt;font style=&quot;font-size: 10px;&quot;&gt;HOME &amp;gt;&lt;/font&gt;" style="text;html=1;strokeColor=none;fillColor=none;align=center;verticalAlign=middle;whiteSpace=wrap;rounded=0;" vertex="1" parent="1">
          <mxGeometry x="496" y="1245" width="60" height="30" as="geometry" />
        </mxCell>
        <mxCell id="r_MsDGuk_bmXL-AQdSYz-27" value="&lt;div style=&quot;text-align: center;&quot;&gt;&lt;span style=&quot;background-color: rgb(255, 255, 255); font-size: 10px;&quot;&gt;Diameter:&lt;/span&gt;&lt;span style=&quot;background-color: rgb(255, 255, 255); font-size: 10px;&quot;&gt;&amp;nbsp;&lt;/span&gt;&lt;/div&gt;" style="text;html=1;align=left;verticalAlign=middle;whiteSpace=wrap;rounded=0;strokeWidth=2;" vertex="1" parent="1">
          <mxGeometry x="467.5" y="1210.5" width="53.5" height="12.5" as="geometry" />
        </mxCell>
        <mxCell id="r_MsDGuk_bmXL-AQdSYz-28" value="&lt;font style=&quot;font-size: 10px;&quot;&gt;&amp;lt; ANGLE&lt;/font&gt;" style="text;html=1;strokeColor=none;fillColor=none;align=center;verticalAlign=middle;whiteSpace=wrap;rounded=0;" vertex="1" parent="1">
          <mxGeometry x="425" y="1252.5" width="60" height="15" as="geometry" />
        </mxCell>
        <mxCell id="r_MsDGuk_bmXL-AQdSYz-29" value="" style="rounded=0;whiteSpace=wrap;html=1;" vertex="1" parent="1">
          <mxGeometry x="285" y="1190" width="120" height="80" as="geometry" />
        </mxCell>
        <mxCell id="r_MsDGuk_bmXL-AQdSYz-30" value="CuttingAngleSetting" style="text;html=1;strokeColor=none;fillColor=none;align=center;verticalAlign=middle;whiteSpace=wrap;rounded=0;" vertex="1" parent="1">
          <mxGeometry x="288.5" y="1165" width="116" height="30" as="geometry" />
        </mxCell>
        <mxCell id="r_MsDGuk_bmXL-AQdSYz-31" value="SETTING" style="text;html=1;strokeColor=none;fillColor=none;align=center;verticalAlign=middle;whiteSpace=wrap;rounded=0;" vertex="1" parent="1">
          <mxGeometry x="295" y="1186" width="100" height="30" as="geometry" />
        </mxCell>
        <mxCell id="r_MsDGuk_bmXL-AQdSYz-32" value="" style="endArrow=none;html=1;rounded=0;exitX=0;exitY=0.25;exitDx=0;exitDy=0;entryX=1;entryY=0.25;entryDx=0;entryDy=0;" edge="1" parent="1" source="r_MsDGuk_bmXL-AQdSYz-29" target="r_MsDGuk_bmXL-AQdSYz-29">
          <mxGeometry width="50" height="50" relative="1" as="geometry">
            <mxPoint x="345" y="1260" as="sourcePoint" />
            <mxPoint x="395" y="1210" as="targetPoint" />
          </mxGeometry>
        </mxCell>
        <mxCell id="r_MsDGuk_bmXL-AQdSYz-33" value="&lt;font style=&quot;font-size: 10px;&quot;&gt;DIAMETER&amp;gt;&lt;/font&gt;" style="text;html=1;strokeColor=none;fillColor=none;align=center;verticalAlign=middle;whiteSpace=wrap;rounded=0;" vertex="1" parent="1">
          <mxGeometry x="343" y="1248" width="60" height="25" as="geometry" />
        </mxCell>
        <mxCell id="r_MsDGuk_bmXL-AQdSYz-35" value="&lt;font style=&quot;font-size: 10px;&quot;&gt;&amp;lt;SPEED&lt;/font&gt;" style="text;html=1;strokeColor=none;fillColor=none;align=center;verticalAlign=middle;whiteSpace=wrap;rounded=0;" vertex="1" parent="1">
          <mxGeometry x="278" y="1246" width="60" height="30" as="geometry" />
        </mxCell>
        <mxCell id="r_MsDGuk_bmXL-AQdSYz-36" value="" style="rounded=0;whiteSpace=wrap;html=1;" vertex="1" parent="1">
          <mxGeometry x="135" y="1190" width="120" height="80" as="geometry" />
        </mxCell>
        <mxCell id="r_MsDGuk_bmXL-AQdSYz-37" value="WireSpeedSetting" style="text;html=1;strokeColor=none;fillColor=none;align=center;verticalAlign=middle;whiteSpace=wrap;rounded=0;" vertex="1" parent="1">
          <mxGeometry x="140" y="1165" width="110" height="30" as="geometry" />
        </mxCell>
        <mxCell id="r_MsDGuk_bmXL-AQdSYz-38" value="SETTING" style="text;html=1;strokeColor=none;fillColor=none;align=center;verticalAlign=middle;whiteSpace=wrap;rounded=0;" vertex="1" parent="1">
          <mxGeometry x="145" y="1186" width="100" height="30" as="geometry" />
        </mxCell>
        <mxCell id="r_MsDGuk_bmXL-AQdSYz-39" value="" style="endArrow=none;html=1;rounded=0;exitX=0;exitY=0.25;exitDx=0;exitDy=0;entryX=1;entryY=0.25;entryDx=0;entryDy=0;" edge="1" parent="1" source="r_MsDGuk_bmXL-AQdSYz-36" target="r_MsDGuk_bmXL-AQdSYz-36">
          <mxGeometry width="50" height="50" relative="1" as="geometry">
            <mxPoint x="195" y="1260" as="sourcePoint" />
            <mxPoint x="245" y="1210" as="targetPoint" />
          </mxGeometry>
        </mxCell>
        <mxCell id="r_MsDGuk_bmXL-AQdSYz-40" value="&lt;font style=&quot;font-size: 10px;&quot;&gt;ANGLE&amp;gt;&lt;/font&gt;" style="text;html=1;strokeColor=none;fillColor=none;align=center;verticalAlign=middle;whiteSpace=wrap;rounded=0;" vertex="1" parent="1">
          <mxGeometry x="201" y="1257" width="60" height="14" as="geometry" />
        </mxCell>
        <mxCell id="r_MsDGuk_bmXL-AQdSYz-45" style="edgeStyle=orthogonalEdgeStyle;rounded=0;orthogonalLoop=1;jettySize=auto;html=1;entryX=0;entryY=0.5;entryDx=0;entryDy=0;fontSize=8;" edge="1" parent="1" source="r_MsDGuk_bmXL-AQdSYz-46" target="r_MsDGuk_bmXL-AQdSYz-58">
          <mxGeometry relative="1" as="geometry" />
        </mxCell>
        <mxCell id="r_MsDGuk_bmXL-AQdSYz-46" value="" style="rounded=0;whiteSpace=wrap;html=1;" vertex="1" parent="1">
          <mxGeometry x="1059" y="1190" width="120" height="80" as="geometry" />
        </mxCell>
        <mxCell id="r_MsDGuk_bmXL-AQdSYz-47" value="Confirm" style="text;html=1;strokeColor=none;fillColor=none;align=center;verticalAlign=middle;whiteSpace=wrap;rounded=0;" vertex="1" parent="1">
          <mxGeometry x="1089" y="1160" width="60" height="30" as="geometry" />
        </mxCell>
        <mxCell id="r_MsDGuk_bmXL-AQdSYz-48" value="CONFIRM" style="text;html=1;strokeColor=none;fillColor=none;align=center;verticalAlign=middle;whiteSpace=wrap;rounded=0;" vertex="1" parent="1">
          <mxGeometry x="1069" y="1186" width="100" height="30" as="geometry" />
        </mxCell>
        <mxCell id="r_MsDGuk_bmXL-AQdSYz-49" value="" style="endArrow=none;html=1;rounded=0;exitX=0;exitY=0.25;exitDx=0;exitDy=0;entryX=1;entryY=0.25;entryDx=0;entryDy=0;" edge="1" parent="1" source="r_MsDGuk_bmXL-AQdSYz-46" target="r_MsDGuk_bmXL-AQdSYz-46">
          <mxGeometry width="50" height="50" relative="1" as="geometry">
            <mxPoint x="1119" y="1260" as="sourcePoint" />
            <mxPoint x="1169" y="1210" as="targetPoint" />
          </mxGeometry>
        </mxCell>
        <mxCell id="r_MsDGuk_bmXL-AQdSYz-50" value="NEXT &amp;gt;" style="text;html=1;strokeColor=none;fillColor=none;align=center;verticalAlign=middle;whiteSpace=wrap;rounded=0;" vertex="1" parent="1">
          <mxGeometry x="1124" y="1245" width="60" height="25" as="geometry" />
        </mxCell>
        <mxCell id="r_MsDGuk_bmXL-AQdSYz-51" value="&lt;div style=&quot;&quot;&gt;Length&amp;nbsp; &amp;nbsp;: ... mm&lt;br&gt;Quantity: ... PCS&lt;/div&gt;" style="text;html=1;strokeColor=none;fillColor=none;align=left;verticalAlign=middle;whiteSpace=wrap;rounded=0;" vertex="1" parent="1">
          <mxGeometry x="1063.5" y="1210" width="111" height="43" as="geometry" />
        </mxCell>
        <mxCell id="r_MsDGuk_bmXL-AQdSYz-52" value="&amp;lt; BACK" style="text;html=1;strokeColor=none;fillColor=none;align=center;verticalAlign=middle;whiteSpace=wrap;rounded=0;" vertex="1" parent="1">
          <mxGeometry x="1055" y="1245" width="60" height="30" as="geometry" />
        </mxCell>
        <mxCell id="r_MsDGuk_bmXL-AQdSYz-53" style="edgeStyle=orthogonalEdgeStyle;rounded=0;orthogonalLoop=1;jettySize=auto;html=1;entryX=0;entryY=0;entryDx=0;entryDy=0;" edge="1" parent="1" source="r_MsDGuk_bmXL-AQdSYz-54" target="r_MsDGuk_bmXL-AQdSYz-69">
          <mxGeometry relative="1" as="geometry">
            <Array as="points">
              <mxPoint x="1521" y="1230" />
              <mxPoint x="1521" y="1370" />
              <mxPoint x="621" y="1370" />
            </Array>
          </mxGeometry>
        </mxCell>
        <mxCell id="r_MsDGuk_bmXL-AQdSYz-54" value="" style="rounded=0;whiteSpace=wrap;html=1;" vertex="1" parent="1">
          <mxGeometry x="1355" y="1190" width="120" height="80" as="geometry" />
        </mxCell>
        <mxCell id="r_MsDGuk_bmXL-AQdSYz-55" value="Complete" style="text;html=1;strokeColor=none;fillColor=none;align=center;verticalAlign=middle;whiteSpace=wrap;rounded=0;" vertex="1" parent="1">
          <mxGeometry x="1385" y="1160" width="60" height="30" as="geometry" />
        </mxCell>
        <mxCell id="r_MsDGuk_bmXL-AQdSYz-56" value="COMPLETE" style="text;html=1;strokeColor=none;fillColor=none;align=center;verticalAlign=middle;whiteSpace=wrap;rounded=0;" vertex="1" parent="1">
          <mxGeometry x="1365" y="1216" width="100" height="30" as="geometry" />
        </mxCell>
        <mxCell id="r_MsDGuk_bmXL-AQdSYz-57" style="edgeStyle=orthogonalEdgeStyle;rounded=0;orthogonalLoop=1;jettySize=auto;html=1;entryX=0;entryY=0.5;entryDx=0;entryDy=0;fontSize=8;" edge="1" parent="1" source="r_MsDGuk_bmXL-AQdSYz-58" target="r_MsDGuk_bmXL-AQdSYz-54">
          <mxGeometry relative="1" as="geometry" />
        </mxCell>
        <mxCell id="r_MsDGuk_bmXL-AQdSYz-58" value="" style="rounded=0;whiteSpace=wrap;html=1;" vertex="1" parent="1">
          <mxGeometry x="1209" y="1190" width="120" height="80" as="geometry" />
        </mxCell>
        <mxCell id="r_MsDGuk_bmXL-AQdSYz-59" value="CurrentlyCutting" style="text;html=1;strokeColor=none;fillColor=none;align=center;verticalAlign=middle;whiteSpace=wrap;rounded=0;" vertex="1" parent="1">
          <mxGeometry x="1239" y="1160" width="60" height="30" as="geometry" />
        </mxCell>
        <mxCell id="r_MsDGuk_bmXL-AQdSYz-60" value="PROCESSING" style="text;html=1;strokeColor=none;fillColor=none;align=center;verticalAlign=middle;whiteSpace=wrap;rounded=0;" vertex="1" parent="1">
          <mxGeometry x="1219" y="1186" width="100" height="30" as="geometry" />
        </mxCell>
        <mxCell id="r_MsDGuk_bmXL-AQdSYz-61" value="" style="endArrow=none;html=1;rounded=0;exitX=0;exitY=0.25;exitDx=0;exitDy=0;entryX=1;entryY=0.25;entryDx=0;entryDy=0;" edge="1" parent="1" source="r_MsDGuk_bmXL-AQdSYz-58" target="r_MsDGuk_bmXL-AQdSYz-58">
          <mxGeometry width="50" height="50" relative="1" as="geometry">
            <mxPoint x="1269" y="1260" as="sourcePoint" />
            <mxPoint x="1319" y="1210" as="targetPoint" />
          </mxGeometry>
        </mxCell>
        <mxCell id="r_MsDGuk_bmXL-AQdSYz-62" value="&lt;div style=&quot;&quot;&gt;Length&amp;nbsp; &amp;nbsp;: ... mm&lt;br&gt;&amp;nbsp;.../... PCS&lt;/div&gt;" style="text;html=1;strokeColor=none;fillColor=none;align=left;verticalAlign=middle;whiteSpace=wrap;rounded=0;" vertex="1" parent="1">
          <mxGeometry x="1219" y="1216" width="111" height="44" as="geometry" />
        </mxCell>
        <mxCell id="r_MsDGuk_bmXL-AQdSYz-63" value="&lt;font style=&quot;font-size: 12px;&quot;&gt;1s&lt;/font&gt;" style="text;html=1;strokeColor=none;fillColor=none;align=center;verticalAlign=middle;whiteSpace=wrap;rounded=0;fontSize=8;" vertex="1" parent="1">
          <mxGeometry x="1465" y="1199" width="60" height="30" as="geometry" />
        </mxCell>
        <mxCell id="r_MsDGuk_bmXL-AQdSYz-64" value="&lt;font style=&quot;font-size: 12px;&quot;&gt;V1.0&lt;/font&gt;" style="text;html=1;strokeColor=none;fillColor=none;align=center;verticalAlign=middle;whiteSpace=wrap;rounded=0;fontSize=14;" vertex="1" parent="1">
          <mxGeometry x="579" y="1223" width="60" height="30" as="geometry" />
        </mxCell>
        <mxCell id="r_MsDGuk_bmXL-AQdSYz-65" value="&amp;lt; SET" style="text;html=1;strokeColor=none;fillColor=none;align=center;verticalAlign=middle;whiteSpace=wrap;rounded=0;" vertex="1" parent="1">
          <mxGeometry x="577" y="1245" width="60" height="30" as="geometry" />
        </mxCell>
        <mxCell id="r_MsDGuk_bmXL-AQdSYz-66" value="state 0" style="text;html=1;strokeColor=none;fillColor=none;align=center;verticalAlign=middle;whiteSpace=wrap;rounded=0;" vertex="1" parent="1">
          <mxGeometry x="165" y="1270" width="60" height="30" as="geometry" />
        </mxCell>
        <mxCell id="r_MsDGuk_bmXL-AQdSYz-67" value="state 1" style="text;html=1;strokeColor=none;fillColor=none;align=center;verticalAlign=middle;whiteSpace=wrap;rounded=0;" vertex="1" parent="1">
          <mxGeometry x="321" y="1270" width="60" height="30" as="geometry" />
        </mxCell>
        <mxCell id="r_MsDGuk_bmXL-AQdSYz-68" value="state 2" style="text;html=1;strokeColor=none;fillColor=none;align=center;verticalAlign=middle;whiteSpace=wrap;rounded=0;" vertex="1" parent="1">
          <mxGeometry x="461" y="1270" width="60" height="30" as="geometry" />
        </mxCell>
        <mxCell id="r_MsDGuk_bmXL-AQdSYz-69" value="state 3" style="text;html=1;strokeColor=none;fillColor=none;align=center;verticalAlign=middle;whiteSpace=wrap;rounded=0;" vertex="1" parent="1">
          <mxGeometry x="621" y="1270" width="60" height="30" as="geometry" />
        </mxCell>
        <mxCell id="r_MsDGuk_bmXL-AQdSYz-70" value="state 4" style="text;html=1;strokeColor=none;fillColor=none;align=center;verticalAlign=middle;whiteSpace=wrap;rounded=0;" vertex="1" parent="1">
          <mxGeometry x="779" y="1270" width="60" height="30" as="geometry" />
        </mxCell>
        <mxCell id="r_MsDGuk_bmXL-AQdSYz-71" value="state 5" style="text;html=1;strokeColor=none;fillColor=none;align=center;verticalAlign=middle;whiteSpace=wrap;rounded=0;" vertex="1" parent="1">
          <mxGeometry x="936" y="1270" width="60" height="30" as="geometry" />
        </mxCell>
        <mxCell id="r_MsDGuk_bmXL-AQdSYz-72" value="state 6" style="text;html=1;strokeColor=none;fillColor=none;align=center;verticalAlign=middle;whiteSpace=wrap;rounded=0;" vertex="1" parent="1">
          <mxGeometry x="1089" y="1270" width="60" height="30" as="geometry" />
        </mxCell>
        <mxCell id="r_MsDGuk_bmXL-AQdSYz-73" value="state 7" style="text;html=1;strokeColor=none;fillColor=none;align=center;verticalAlign=middle;whiteSpace=wrap;rounded=0;" vertex="1" parent="1">
          <mxGeometry x="1239" y="1270" width="60" height="30" as="geometry" />
        </mxCell>
        <mxCell id="r_MsDGuk_bmXL-AQdSYz-74" value="state 8" style="text;html=1;strokeColor=none;fillColor=none;align=center;verticalAlign=middle;whiteSpace=wrap;rounded=0;" vertex="1" parent="1">
          <mxGeometry x="1385" y="1270" width="60" height="30" as="geometry" />
        </mxCell>
        <mxCell id="r_MsDGuk_bmXL-AQdSYz-75" value="" style="endArrow=classic;startArrow=classic;html=1;rounded=0;entryX=0;entryY=0.5;entryDx=0;entryDy=0;exitX=1;exitY=0.5;exitDx=0;exitDy=0;" edge="1" parent="1" source="r_MsDGuk_bmXL-AQdSYz-22" target="r_MsDGuk_bmXL-AQdSYz-3">
          <mxGeometry width="50" height="50" relative="1" as="geometry">
            <mxPoint x="511" y="1370" as="sourcePoint" />
            <mxPoint x="561" y="1320" as="targetPoint" />
          </mxGeometry>
        </mxCell>
        <mxCell id="r_MsDGuk_bmXL-AQdSYz-76" value="" style="endArrow=classic;startArrow=classic;html=1;rounded=0;entryX=0;entryY=0.5;entryDx=0;entryDy=0;exitX=1;exitY=0.5;exitDx=0;exitDy=0;" edge="1" parent="1" target="r_MsDGuk_bmXL-AQdSYz-22">
          <mxGeometry width="50" height="50" relative="1" as="geometry">
            <mxPoint x="405.0000000000002" y="1231" as="sourcePoint" />
            <mxPoint x="443" y="1231.26" as="targetPoint" />
          </mxGeometry>
        </mxCell>
        <mxCell id="r_MsDGuk_bmXL-AQdSYz-77" value="" style="endArrow=classic;startArrow=classic;html=1;rounded=0;entryX=0;entryY=0.5;entryDx=0;entryDy=0;exitX=1;exitY=0.5;exitDx=0;exitDy=0;" edge="1" parent="1" target="r_MsDGuk_bmXL-AQdSYz-29">
          <mxGeometry width="50" height="50" relative="1" as="geometry">
            <mxPoint x="254.5" y="1230.5" as="sourcePoint" />
            <mxPoint x="295" y="1310" as="targetPoint" />
          </mxGeometry>
        </mxCell>
        <mxCell id="r_MsDGuk_bmXL-AQdSYz-82" value=".. mm" style="text;html=1;strokeColor=none;fillColor=none;align=center;verticalAlign=middle;whiteSpace=wrap;rounded=0;" vertex="1" parent="1">
          <mxGeometry x="461" y="1223" width="60" height="18" as="geometry" />
        </mxCell>
        <mxCell id="r_MsDGuk_bmXL-AQdSYz-83" value="&lt;div style=&quot;&quot;&gt;&lt;span style=&quot;font-size: 10px; background-color: rgb(255, 255, 255);&quot;&gt;Cutting Angle :&lt;/span&gt;&lt;/div&gt;" style="text;html=1;align=center;verticalAlign=middle;whiteSpace=wrap;rounded=0;strokeWidth=2;" vertex="1" parent="1">
          <mxGeometry x="290" y="1210.5" width="113" height="12.5" as="geometry" />
        </mxCell>
        <mxCell id="r_MsDGuk_bmXL-AQdSYz-84" value=".. deg" style="text;html=1;strokeColor=none;fillColor=none;align=center;verticalAlign=middle;whiteSpace=wrap;rounded=0;" vertex="1" parent="1">
          <mxGeometry x="313" y="1223" width="60" height="30" as="geometry" />
        </mxCell>
        <mxCell id="r_MsDGuk_bmXL-AQdSYz-85" value="&lt;div style=&quot;text-align: center;&quot;&gt;&lt;span style=&quot;font-size: 10px; background-color: rgb(255, 255, 255);&quot;&gt;Wire Speed:&lt;/span&gt;&lt;/div&gt;" style="text;html=1;align=left;verticalAlign=middle;whiteSpace=wrap;rounded=0;strokeWidth=2;" vertex="1" parent="1">
          <mxGeometry x="168.5" y="1214" width="68.5" height="9" as="geometry" />
        </mxCell>
        <mxCell id="r_MsDGuk_bmXL-AQdSYz-86" value=".. %" style="text;html=1;strokeColor=none;fillColor=none;align=center;verticalAlign=middle;whiteSpace=wrap;rounded=0;" vertex="1" parent="1">
          <mxGeometry x="165" y="1231.75" width="60" height="12.5" as="geometry" />
        </mxCell>
        <mxCell id="r_MsDGuk_bmXL-AQdSYz-88" value="" style="rounded=0;whiteSpace=wrap;html=1;" vertex="1" parent="1">
          <mxGeometry x="-10" y="1189.5" width="120" height="80" as="geometry" />
        </mxCell>
        <mxCell id="r_MsDGuk_bmXL-AQdSYz-89" value="CutSpeedSetting" style="text;html=1;strokeColor=none;fillColor=none;align=center;verticalAlign=middle;whiteSpace=wrap;rounded=0;" vertex="1" parent="1">
          <mxGeometry x="-5" y="1164.5" width="110" height="30" as="geometry" />
        </mxCell>
        <mxCell id="r_MsDGuk_bmXL-AQdSYz-90" value="SETTING" style="text;html=1;strokeColor=none;fillColor=none;align=center;verticalAlign=middle;whiteSpace=wrap;rounded=0;" vertex="1" parent="1">
          <mxGeometry y="1185.5" width="100" height="30" as="geometry" />
        </mxCell>
        <mxCell id="r_MsDGuk_bmXL-AQdSYz-91" value="" style="endArrow=none;html=1;rounded=0;exitX=0;exitY=0.25;exitDx=0;exitDy=0;entryX=1;entryY=0.25;entryDx=0;entryDy=0;" edge="1" parent="1" source="r_MsDGuk_bmXL-AQdSYz-88" target="r_MsDGuk_bmXL-AQdSYz-88">
          <mxGeometry width="50" height="50" relative="1" as="geometry">
            <mxPoint x="50" y="1259.5" as="sourcePoint" />
            <mxPoint x="100" y="1209.5" as="targetPoint" />
          </mxGeometry>
        </mxCell>
        <mxCell id="r_MsDGuk_bmXL-AQdSYz-92" value="&lt;font style=&quot;font-size: 10px;&quot;&gt;W.SPEED&amp;gt;&lt;/font&gt;" style="text;html=1;strokeColor=none;fillColor=none;align=center;verticalAlign=middle;whiteSpace=wrap;rounded=0;" vertex="1" parent="1">
          <mxGeometry x="50" y="1257.75" width="60" height="10.5" as="geometry" />
        </mxCell>
        <mxCell id="r_MsDGuk_bmXL-AQdSYz-93" value="state 0" style="text;html=1;strokeColor=none;fillColor=none;align=center;verticalAlign=middle;whiteSpace=wrap;rounded=0;" vertex="1" parent="1">
          <mxGeometry x="20" y="1269.5" width="60" height="30" as="geometry" />
        </mxCell>
        <mxCell id="r_MsDGuk_bmXL-AQdSYz-94" value="&lt;div style=&quot;text-align: center;&quot;&gt;&lt;span style=&quot;font-size: 10px; background-color: rgb(255, 255, 255);&quot;&gt;Cut Speed:&lt;/span&gt;&lt;/div&gt;" style="text;html=1;align=left;verticalAlign=middle;whiteSpace=wrap;rounded=0;strokeWidth=2;" vertex="1" parent="1">
          <mxGeometry x="23.5" y="1213.5" width="68.5" height="9" as="geometry" />
        </mxCell>
        <mxCell id="r_MsDGuk_bmXL-AQdSYz-95" value=".. %" style="text;html=1;strokeColor=none;fillColor=none;align=center;verticalAlign=middle;whiteSpace=wrap;rounded=0;" vertex="1" parent="1">
          <mxGeometry x="20" y="1231.25" width="60" height="12.5" as="geometry" />
        </mxCell>
        <mxCell id="r_MsDGuk_bmXL-AQdSYz-96" value="" style="endArrow=classic;startArrow=classic;html=1;rounded=0;entryX=0;entryY=0.5;entryDx=0;entryDy=0;exitX=1;exitY=0.5;exitDx=0;exitDy=0;" edge="1" parent="1" source="r_MsDGuk_bmXL-AQdSYz-88" target="r_MsDGuk_bmXL-AQdSYz-36">
          <mxGeometry width="50" height="50" relative="1" as="geometry">
            <mxPoint x="100" y="1350" as="sourcePoint" />
            <mxPoint x="150" y="1300" as="targetPoint" />
          </mxGeometry>
        </mxCell>
        <mxCell id="r_MsDGuk_bmXL-AQdSYz-97" value="&lt;font style=&quot;font-size: 10px;&quot;&gt;&amp;lt;C.SPEED&lt;/font&gt;" style="text;html=1;strokeColor=none;fillColor=none;align=center;verticalAlign=middle;whiteSpace=wrap;rounded=0;" vertex="1" parent="1">
          <mxGeometry x="133" y="1255" width="60" height="16" as="geometry" />
        </mxCell>
      </root>
    </mxGraphModel>
  </diagram>
</mxfile>
